# xmcd
#
# Track frame offsets:
#	150
#	21127
#	42885
#	63620
#	84467
#	104467
#	126780
#	145350
#
# Disc length: 2212 seconds
#
# Revision: 3
# Processed by: cddbd v1.5.2PL0 Copyright (c) Steve Scherf et al.
# Submitted via: EasyCDDAExtractor 15.3.0.1
#
DISCID=6c08a208
DTITLE=Celines - Libre
DYEAR=1995
DGENRE=Latin
TTITLE0=Tus Desprecios
TTITLE1=Bombon Caribe
TTITLE2=Amigos
TTITLE3=Libre
TTITLE4=Vivita Y Cantando
TTITLE5=No Me Puedes Dejar Asi
TTITLE6=Amor De Araña
TTITLE7=Si Vuelves Tu
EXTD=
EXTT0=
EXTT1=
EXTT2=
EXTT3=
EXTT4=
EXTT5=
EXTT6=
EXTT7=
PLAYORDER=
